<?xml version="1.0" standalone="no"?>
<!DOCTYPE svg PUBLIC "-//W3C//DTD SVG 20010904//EN"
 "http://www.w3.org/TR/2001/REC-SVG-20010904/DTD/svg10.dtd">
<svg version="1.0" xmlns="http://www.w3.org/2000/svg"
 width="1024.000000pt" height="1024.000000pt" viewBox="0 0 1024.000000 1024.000000"
 preserveAspectRatio="xMidYMid meet">
<metadata>
Created by potrace 1.11, written by Peter Selinger 2001-2013
</metadata>
<g transform="translate(0.000000,1024.000000) scale(0.100000,-0.100000)"
fill="#000000" stroke="none">
<path d="M3666 6645 c-3 -9 8 -41 24 -72 17 -31 28 -58 25 -61 -3 -3 1 -12 8
-21 26 -31 55 -159 60 -260 l2 -45 -53 1 c-30 1 -60 7 -68 14 -8 6 -14 7 -14
2 0 -6 -15 -10 -32 -10 -39 0 -109 -13 -153 -28 -5 -1 -20 -6 -32 -10 -13 -4
-23 -11 -23 -15 0 -4 -10 -11 -22 -14 -21 -5 -69 -41 -123 -91 -35 -33 -104
-131 -111 -159 -3 -14 -10 -26 -15 -26 -5 0 -9 -7 -9 -16 0 -28 -99 -213 -130
-244 -3 -3 -18 -22 -34 -44 -25 -33 -85 -95 -163 -166 -12 -11 -26 -20 -30
-20 -4 0 -19 -12 -32 -25 -13 -14 -26 -24 -28 -21 -2 2 -16 -7 -30 -20 -14
-13 -29 -24 -34 -24 -16 0 -156 -135 -194 -186 -11 -15 -25 -33 -32 -39 -7 -7
-9 -15 -6 -19 4 -3 1 -6 -5 -6 -7 0 -12 -6 -12 -14 0 -7 -7 -19 -15 -26 -8 -7
-20 -30 -27 -52 -6 -22 -17 -42 -24 -45 -7 -3 -10 -11 -8 -18 3 -7 1 -16 -5
-19 -6 -4 -8 -13 -4 -21 3 -8 1 -15 -4 -15 -5 0 -10 -6 -11 -12 0 -7 -6 -32
-12 -56 -6 -24 -8 -47 -5 -53 4 -5 2 -9 -3 -9 -14 0 -16 -308 -2 -325 8 -9 8
-15 0 -20 -7 -4 -7 -12 0 -26 6 -11 8 -24 5 -29 -3 -6 -2 -10 3 -10 6 0 13
-17 18 -37 4 -21 8 -40 10 -43 1 -3 5 -15 9 -27 4 -13 12 -23 17 -23 5 0 7 -4
3 -10 -6 -9 13 -50 29 -61 5 -4 6 -11 3 -17 -4 -5 2 -17 13 -27 11 -10 20 -22
20 -28 0 -8 12 -24 60 -83 5 -7 6 -15 3 -18 -4 -3 1 -6 11 -6 9 0 14 -4 11
-10 -3 -5 -3 -10 2 -10 4 0 39 -29 77 -65 38 -36 73 -65 78 -65 5 0 16 -6 23
-12 35 -31 45 -38 58 -38 8 0 20 -7 27 -15 6 -8 15 -13 19 -12 3 1 27 -6 51
-17 25 -10 54 -22 65 -27 36 -14 70 -23 83 -21 6 2 12 -1 12 -6 0 -4 77 -9
170 -11 94 -1 170 1 170 6 0 5 12 9 28 8 50 -1 282 95 282 118 0 5 7 6 16 3 8
-3 12 -2 9 4 -3 6 -1 10 5 10 6 0 22 11 35 25 14 13 25 22 25 19 0 -4 35 30
78 74 74 77 129 147 130 166 0 5 6 12 14 17 7 5 13 12 13 16 1 4 13 31 28 60
39 76 65 151 71 205 2 15 9 34 16 43 8 9 8 15 2 15 -6 0 -8 10 -5 23 9 34 10
207 2 207 -4 0 -5 14 -3 30 3 17 1 30 -3 30 -5 0 -8 12 -7 28 1 15 -2 34 -7
43 -4 8 -4 21 1 29 5 8 5 19 -1 26 -10 12 -18 92 -19 204 0 96 1 110 13 110 5
0 4 6 -2 13 -6 8 -8 16 -6 19 3 3 7 18 9 34 9 68 20 109 30 116 8 5 7 8 -2 8
-10 0 -9 7 3 30 8 16 15 32 15 35 -1 17 14 55 22 55 6 0 8 7 4 15 -3 8 -1 15
5 15 6 0 7 5 4 10 -3 6 -3 16 2 23 8 12 12 28 15 60 1 9 5 17 8 17 5 0 5 210
0 220 -2 3 -4 10 -5 15 -12 60 -84 190 -132 237 -79 77 -93 88 -102 88 -11 0
-24 31 -16 38 6 6 51 -15 75 -34 8 -7 18 -13 23 -12 22 0 88 -15 91 -21 3 -4
22 -6 43 -3 21 2 45 3 53 3 14 -1 34 -1 83 2 9 1 17 5 17 10 0 5 9 7 20 4 10
-3 24 1 31 9 6 8 15 12 19 9 10 -6 118 49 155 79 63 52 125 119 125 135 0 6 5
11 10 11 6 0 10 7 10 15 0 8 5 15 10 15 6 0 10 7 10 15 0 8 5 15 11 15 5 0 8
4 4 9 -3 5 -1 12 4 16 18 11 -9 63 -40 77 -16 7 -29 16 -29 20 0 5 -9 8 -20 8
-11 0 -20 5 -20 11 0 5 -4 7 -10 4 -5 -3 -10 -2 -10 4 0 5 -16 15 -35 22 -19
7 -35 17 -35 23 0 5 -3 7 -6 3 -3 -3 -22 0 -42 7 -21 7 -42 11 -49 9 -6 -2
-14 1 -18 7 -5 8 -11 8 -21 -1 -9 -7 -14 -8 -14 -1 0 11 -25 10 -36 -1 -4 -4
-12 -3 -18 2 -12 10 -107 -7 -157 -27 -15 -6 -30 -8 -33 -5 -3 4 -6 1 -6 -6 0
-7 -4 -9 -10 -6 -5 3 -10 1 -10 -6 0 -7 -3 -9 -6 -6 -4 4 -19 -2 -34 -13 -15
-11 -30 -17 -33 -13 -4 3 -9 -2 -13 -11 -3 -9 -10 -16 -16 -16 -10 0 -118
-105 -115 -112 1 -2 -2 0 -6 3 -5 4 -9 13 -10 20 -2 8 -6 20 -10 27 -5 6 -6
12 -2 12 3 0 0 10 -7 23 -6 12 -13 30 -15 39 -4 25 -45 110 -59 126 -18 18
-81 15 -88 -3z m735 -119 c14 -1 32 -6 39 -11 7 -4 20 -9 29 -10 31 -4 61 -17
61 -26 0 -5 3 -8 8 -7 10 2 64 -24 79 -38 10 -9 5 -20 -21 -47 -19 -20 -32
-38 -30 -40 3 -2 -14 -19 -37 -38 -23 -19 -48 -40 -55 -46 -7 -7 -15 -13 -18
-13 -4 0 -25 -12 -47 -26 -23 -14 -53 -28 -67 -30 -14 -3 -30 -8 -36 -12 -19
-11 -166 -22 -166 -11 0 3 -10 7 -23 7 -29 0 -152 56 -162 74 -5 7 -5 10 0 6
4 -4 13 -4 19 1 16 12 119 45 134 43 6 -2 12 2 12 8 0 6 4 8 10 5 18 -11 154
38 178 64 l23 25 -21 8 c-12 4 -26 6 -31 3 -5 -4 -6 1 -3 9 3 9 10 14 14 11
14 -9 23 16 11 28 -8 8 -11 8 -11 -2 0 -7 -4 -10 -9 -6 -6 3 -14 -2 -19 -11
-7 -12 -18 -15 -41 -12 -17 2 -31 1 -31 -4 0 -4 -10 -8 -22 -8 -22 0 -22 0 2
17 43 29 52 41 39 49 -7 4 -18 -1 -26 -11 -7 -11 -13 -15 -13 -11 0 5 -9 -2
-19 -15 -11 -14 -23 -20 -28 -15 -4 5 -2 11 5 13 9 4 10 8 2 18 -6 7 -7 15 -3
18 8 4 81 30 96 33 4 1 9 3 12 4 3 1 18 3 34 4 16 0 32 4 36 7 3 4 20 5 38 3
18 -3 44 -6 58 -8z m-291 -64 c0 -5 -12 -14 -27 -21 l-28 -12 25 21 c29 22 30
23 30 12z m9 -58 c-6 -8 -19 -14 -28 -14 -9 0 -22 -5 -29 -12 -9 -9 -12 -9
-12 1 0 15 25 41 39 41 6 0 11 5 11 11 0 8 5 8 15 -1 12 -10 13 -16 4 -26z
m-69 19 c0 -5 -17 -21 -38 -37 l-37 -29 34 36 c36 39 41 42 41 30z m-75 -83
c3 -5 1 -10 -4 -10 -6 0 -11 5 -11 10 0 6 2 10 4 10 3 0 8 -4 11 -10z m-370
-289 c6 8 10 7 16 -2 6 -10 9 -10 9 -2 0 20 82 -2 169 -45 62 -31 154 -115
166 -152 4 -14 11 -27 14 -30 27 -21 58 -290 33 -290 -4 0 -8 -8 -9 -17 -1
-22 -8 -51 -21 -83 -5 -14 -10 -28 -11 -32 -1 -4 -8 -23 -17 -43 -8 -19 -12
-35 -10 -35 2 0 -4 -22 -14 -50 -10 -27 -17 -63 -16 -80 1 -16 -2 -30 -7 -30
-5 0 -7 -13 -5 -30 3 -16 1 -30 -4 -30 -4 0 -6 -20 -5 -45 1 -25 0 -45 -4 -45
-4 0 -6 -17 -4 -37 1 -21 -1 -45 -6 -54 -5 -9 -5 -19 -2 -23 4 -4 8 -14 10
-24 5 -31 15 -137 15 -154 -1 -10 3 -20 8 -23 5 -3 7 -11 4 -19 -3 -7 0 -25 6
-40 7 -19 7 -25 -1 -20 -8 5 -8 1 0 -14 14 -26 14 -187 1 -213 -8 -13 -7 -19
0 -19 7 0 8 -5 3 -12 -4 -7 -8 -16 -9 -20 -1 -5 -2 -9 -3 -10 -2 -2 -5 -14 -7
-27 -2 -14 -11 -38 -19 -54 -8 -16 -13 -33 -10 -37 3 -4 -2 -13 -9 -20 -8 -6
-18 -25 -21 -41 -4 -16 -10 -29 -15 -29 -4 0 -10 -10 -14 -22 -5 -22 -17 -40
-58 -90 -10 -12 -18 -25 -18 -30 0 -5 -4 -6 -10 -3 -5 3 -10 2 -10 -3 0 -13
-65 -78 -85 -86 -8 -3 -15 -10 -15 -16 0 -5 -5 -10 -12 -10 -6 0 -26 -11 -45
-26 -18 -14 -33 -22 -33 -19 0 4 -13 -3 -29 -14 -16 -12 -39 -21 -50 -21 -12
0 -21 -4 -21 -9 0 -5 -15 -13 -32 -17 -18 -4 -36 -9 -40 -10 -5 -1 -9 -2 -10
-4 -6 -4 -44 -11 -73 -14 -16 -2 -30 -4 -30 -6 0 -1 -37 -3 -82 -4 -46 -1 -83
1 -83 5 0 3 -12 6 -27 6 -16 1 -38 4 -50 7 -13 3 -33 9 -45 12 -35 8 -41 10
-71 22 -70 29 -134 63 -155 82 -12 11 -22 17 -22 13 0 -4 -7 1 -15 11 -8 11
-15 17 -15 13 0 -4 -25 18 -55 48 -30 31 -55 60 -55 65 0 4 -4 10 -8 12 -14 6
-72 96 -72 112 0 9 -3 16 -8 16 -9 0 -42 74 -42 93 0 8 -3 17 -8 21 -4 4 -8
12 -8 17 -1 5 -2 10 -4 12 -2 3 -9 36 -14 72 -3 17 -5 30 -6 30 -4 0 -9 69 -9
110 0 96 4 135 11 135 5 0 6 11 4 24 -2 13 -2 27 2 30 6 7 12 30 14 54 1 6 6
12 11 12 5 0 7 7 3 15 -3 8 0 15 6 15 6 0 8 3 5 6 -3 4 -1 16 5 28 7 11 13 23
13 26 2 17 48 100 56 100 5 0 9 6 9 14 0 7 26 41 58 75 32 34 56 63 54 66 -3
3 0 5 6 5 6 0 22 10 34 23 29 27 95 79 117 91 20 11 243 236 235 236 -4 0 0 8
8 18 64 73 181 285 194 352 2 8 9 19 16 25 7 5 19 21 26 35 30 57 163 142 242
155 22 4 43 11 46 16 4 6 11 6 19 -1 10 -8 15 -8 20 1z"/>
<path d="M3178 5104 c-2 -1 -16 -5 -31 -8 -14 -2 -32 -8 -39 -12 -7 -5 -21 -9
-32 -10 -11 0 -22 -6 -24 -12 -2 -7 -9 -12 -16 -12 -12 0 -32 -14 -113 -78
-12 -9 -22 -22 -23 -28 0 -6 -11 -21 -24 -33 -13 -12 -32 -39 -42 -59 -10 -20
-26 -46 -34 -56 -8 -11 -10 -16 -3 -13 11 7 0 -22 -26 -73 -4 -8 -7 -23 -5
-32 1 -10 -1 -18 -5 -18 -10 0 -10 -229 0 -236 5 -3 7 -9 4 -14 -5 -9 32 -109
44 -120 4 -3 7 -12 9 -20 2 -8 10 -19 18 -23 8 -4 14 -13 14 -20 0 -7 12 -21
27 -32 14 -11 31 -25 37 -31 6 -5 26 -17 44 -25 17 -7 32 -16 32 -19 0 -3 12
-7 27 -8 15 -1 31 -6 37 -12 6 -6 17 -5 30 2 15 8 21 8 24 0 3 -9 9 -9 23 -2
13 7 19 7 19 1 0 -7 8 -7 23 -2 12 5 25 9 30 9 33 4 101 31 145 59 50 31 152
127 152 142 0 4 9 17 20 29 12 12 18 22 14 22 -4 0 1 8 10 19 9 10 18 28 19
40 1 11 5 21 9 21 4 0 8 9 8 20 0 11 4 20 8 20 4 0 8 8 9 18 0 9 4 37 8 62 11
72 12 184 2 198 -5 6 -7 12 -4 12 5 0 -2 27 -18 75 -1 6 -6 20 -10 33 -4 12
-12 22 -17 22 -5 0 -7 4 -4 9 3 4 -2 18 -12 29 -9 11 -30 37 -45 56 -15 20
-34 36 -41 36 -8 0 -17 7 -20 16 -3 8 -10 13 -15 10 -5 -4 -11 -3 -13 1 -1 5
-22 18 -46 30 -24 12 -40 17 -36 11 5 -7 3 -8 -7 -2 -13 8 -134 15 -141 8z
m76 -125 c6 9 76 -10 76 -20 0 -4 -15 -7 -32 -8 -30 0 -69 -7 -75 -11 -2 -2
-7 -4 -13 -5 -5 -1 -13 -4 -17 -5 -5 -1 -11 -2 -15 -2 -3 1 -12 -5 -18 -13 -7
-8 -19 -15 -26 -15 -8 0 -14 -4 -14 -10 0 -5 -5 -10 -10 -10 -6 0 -25 -16 -43
-36 -73 -82 -97 -101 -122 -96 -48 10 -36 44 46 125 26 26 52 47 57 47 6 0 12
7 16 15 3 8 14 15 24 15 10 0 22 4 28 10 15 15 87 27 111 19 12 -5 25 -5 27 0z"/>
<path d="M4558 6137 c-14 -6 -32 -21 -39 -34 -7 -12 -15 -23 -19 -23 -4 0 -8
-37 -9 -82 -1 -45 -6 -89 -11 -98 -5 -9 -5 -22 0 -30 6 -9 5 -17 -3 -22 -9 -6
-9 -8 1 -8 9 0 10 -5 3 -18 -6 -11 -6 -24 0 -35 7 -11 6 -17 -1 -17 -7 0 -7
-6 1 -21 8 -16 8 -20 -1 -14 -9 6 -9 3 -1 -12 7 -14 7 -23 -1 -31 -8 -8 -9
-12 -1 -12 13 0 12 -32 -2 -42 -7 -5 -6 -8 1 -8 10 0 11 -57 0 -67 -3 -3 -1
-14 4 -24 7 -12 6 -19 -3 -22 -9 -4 -9 -6 1 -6 8 -1 10 -6 5 -13 -4 -7 -8 -59
-8 -115 -1 -68 -6 -107 -14 -117 -8 -9 -9 -16 -5 -16 8 0 11 -204 4 -235 -1
-5 -1 -14 0 -20 1 -5 3 -37 5 -70 3 -88 10 -103 67 -154 29 -25 84 -34 106
-18 7 5 15 7 19 4 8 -9 54 54 47 64 -3 5 -1 9 3 9 5 0 8 80 8 178 -1 97 0 180
2 185 3 4 42 -31 88 -78 46 -47 87 -85 90 -85 3 0 18 -11 33 -25 15 -14 34
-32 43 -40 9 -8 19 -15 23 -15 6 0 17 -7 49 -36 26 -23 144 -79 160 -76 4 1 7
-2 7 -6 0 -5 26 -8 57 -7 49 2 60 7 79 31 13 15 21 31 18 35 -2 4 0 9 5 11 5
1 11 21 14 43 3 35 -1 45 -27 71 -17 17 -34 31 -39 32 -23 4 -107 46 -107 53
0 5 -5 9 -11 9 -6 0 -23 12 -39 28 -16 15 -50 45 -75 67 -26 22 -91 83 -146
137 l-98 96 127 129 c235 238 362 396 367 456 3 45 -52 126 -76 111 -5 -3 -9
0 -9 5 0 14 -57 14 -65 1 -4 -6 -10 -8 -14 -5 -5 2 -40 -29 -79 -70 -39 -41
-69 -75 -66 -75 2 0 -4 -8 -13 -18 -10 -10 -56 -61 -103 -112 -113 -125 -196
-210 -204 -210 -3 0 -4 12 0 28 3 15 7 55 8 88 1 37 8 69 16 80 12 14 12 16 1
9 -11 -6 -13 -3 -8 15 3 13 1 31 -6 39 -9 12 -9 13 1 7 13 -8 13 -7 16 74 1
33 -4 65 -13 80 -20 34 -57 70 -65 63 -3 -4 -6 -2 -6 4 0 14 -56 13 -92 0z"/>
<path d="M6710 6030 c-7 -5 -20 -6 -28 -2 -9 3 -13 1 -9 -5 3 -5 -5 -16 -18
-23 -13 -7 -22 -17 -19 -22 3 -4 0 -8 -5 -8 -6 0 -11 -7 -11 -15 0 -8 -3 -15
-7 -15 -5 0 -8 -45 -7 -100 l0 -99 -40 3 c-23 2 -42 5 -43 6 -13 11 -103 -7
-103 -20 0 -5 -6 -7 -14 -4 -7 3 -16 -3 -20 -13 -3 -10 -13 -29 -21 -43 -10
-17 -11 -28 -3 -37 7 -9 7 -13 0 -13 -14 0 -10 -20 12 -53 24 -36 75 -57 140
-57 81 0 96 -7 92 -41 -2 -16 0 -31 4 -34 4 -2 7 -130 7 -284 0 -309 2 -321
64 -344 16 -6 29 -15 29 -18 0 -10 60 -1 87 13 54 27 58 46 60 278 2 118 3
217 4 220 4 20 0 78 -7 94 -5 12 -4 17 3 13 7 -4 7 6 0 32 -17 62 -8 71 70 72
37 1 80 0 95 -1 14 -1 29 4 33 10 3 5 11 8 16 5 5 -4 9 -1 9 6 0 7 3 9 7 6 7
-8 43 47 48 75 2 10 7 23 10 28 3 6 2 10 -4 10 -5 0 -8 9 -6 19 5 27 -32 65
-80 83 -44 16 -54 17 -72 5 -7 -5 -13 -4 -13 1 0 5 -12 8 -27 6 -16 -1 -28 -3
-28 -4 0 -1 -13 -3 -28 -4 l-28 -3 3 74 c2 40 0 73 -4 73 -5 0 -8 9 -8 20 0
21 -16 54 -37 77 -18 20 -88 42 -103 33z"/>
<path d="M5820 5718 c0 -5 -3 -7 -7 -7 -27 4 -64 -3 -75 -15 -8 -7 -24 -17
-37 -21 -52 -16 -181 -153 -181 -191 0 -8 -4 -14 -10 -14 -5 0 -10 -8 -10 -18
0 -10 -6 -27 -14 -37 -8 -11 -12 -25 -9 -32 3 -7 1 -13 -5 -13 -5 0 -10 -10
-11 -22 0 -31 -8 -102 -10 -105 -3 -4 -3 -91 0 -100 3 -10 5 -20 14 -70 4 -24
10 -43 14 -43 3 0 12 -14 19 -30 12 -26 61 -81 104 -116 12 -9 45 -26 58 -28
3 -1 12 -6 20 -11 8 -5 20 -10 25 -12 14 -3 50 -12 78 -19 12 -3 38 -7 57 -8
20 -1 40 -5 45 -8 12 -7 56 -5 70 3 6 3 27 5 48 4 20 0 37 3 37 7 0 4 3 7 8 6
32 -8 167 55 210 97 14 14 29 25 35 25 6 0 7 3 4 7 -4 3 -2 12 4 20 6 7 8 13
4 13 -4 0 -2 7 5 15 7 8 8 15 3 15 -6 0 -9 13 -7 30 5 41 -25 67 -75 66 -21
-1 -45 -6 -52 -12 -8 -6 -31 -17 -51 -25 -21 -7 -38 -17 -38 -21 0 -4 -3 -7
-7 -6 -5 1 -22 -5 -40 -15 -24 -13 -33 -14 -36 -4 -3 6 -6 7 -6 2 -1 -6 -17
-10 -36 -9 -19 1 -35 -3 -35 -9 0 -5 -9 -2 -19 7 -14 13 -20 14 -23 5 -3 -8
-9 -9 -19 -4 -8 5 -20 10 -28 12 -26 3 -71 25 -71 34 0 5 -5 9 -11 9 -6 0 -17
6 -24 14 -12 11 -8 16 28 32 23 10 45 22 48 27 3 4 16 9 27 10 12 1 22 5 22
10 0 4 4 6 8 3 5 -3 19 4 30 15 12 10 23 19 24 18 8 -5 48 14 48 22 0 6 4 8
10 4 5 -3 17 -1 27 4 19 10 58 24 58 20 0 -1 26 15 58 35 59 38 138 106 123
106 -4 0 0 7 8 16 9 8 16 22 16 30 0 24 1 29 12 42 7 8 7 12 -2 12 -10 0 -10
3 0 15 10 12 10 15 0 15 -7 0 -10 7 -6 15 3 8 1 15 -4 15 -4 0 -11 14 -15 31
-4 17 -9 28 -12 25 -3 -3 -16 7 -28 23 -28 32 -116 77 -165 84 -19 3 -35 6
-35 7 0 2 -44 3 -97 4 -54 1 -98 -2 -98 -6z m114 -219 c5 7 15 7 32 1 14 -6
30 -8 35 -4 5 3 9 -1 9 -8 0 -7 -28 -26 -63 -43 -34 -16 -65 -33 -68 -38 -3
-5 -10 -8 -15 -8 -17 1 -44 -10 -44 -19 0 -5 -7 -7 -15 -4 -8 4 -15 2 -15 -4
0 -8 -32 -21 -57 -23 -5 0 -16 -8 -25 -16 -16 -15 -18 -15 -18 0 0 8 7 22 15
30 8 8 12 17 9 20 -3 2 17 27 43 54 47 48 107 74 133 58 6 -3 10 -1 10 6 0 9
3 9 14 0 9 -8 16 -8 20 -2z"/>
<path d="M7540 5719 c0 -4 -8 -6 -17 -4 -10 1 -22 0 -28 -4 -5 -3 -12 -6 -15
-6 -3 -1 -26 -10 -52 -22 -59 -27 -153 -121 -187 -186 -8 -15 -18 -27 -23 -27
-5 0 -6 -4 -3 -10 3 -5 0 -20 -7 -32 -15 -27 -13 -21 -23 -85 -4 -29 -10 -53
-14 -53 -15 0 3 -203 19 -208 5 -2 8 -7 5 -11 -7 -12 38 -101 69 -136 14 -16
26 -33 26 -37 0 -5 6 -8 13 -8 7 0 20 -8 29 -17 27 -29 48 -44 48 -36 0 4 4 3
8 -4 4 -6 20 -14 35 -17 14 -2 31 -7 37 -11 50 -31 192 -21 274 19 48 24 126
86 126 101 0 6 11 20 40 54 21 23 51 86 68 141 11 37 14 281 3 294 -7 8 -8 16
-3 18 18 6 -56 143 -101 190 -25 25 -48 44 -51 40 -3 -3 -6 -1 -6 5 0 10 -62
42 -95 48 -11 2 -20 4 -20 5 0 1 -35 3 -77 4 -43 1 -78 -1 -78 -5z m148 -262
c12 -6 22 -16 22 -24 0 -7 4 -13 9 -13 11 0 33 -80 35 -125 0 -19 4 -35 9 -35
15 0 -2 -92 -27 -143 -28 -58 -84 -103 -116 -94 -11 3 -18 2 -15 -2 2 -5 -9
-8 -25 -9 -17 0 -30 4 -30 9 0 6 -4 8 -9 4 -5 -3 -17 2 -25 11 -9 8 -16 13
-16 9 0 -11 -24 18 -47 55 -29 48 -29 193 0 254 24 51 94 116 124 116 13 0 23
4 23 9 0 9 42 -2 88 -22z"/>
<path d="M4560 4632 c-46 -32 -59 -54 -56 -99 2 -24 -1 -44 -8 -47 -7 -3 -7
-7 2 -14 8 -5 14 -13 14 -17 0 -4 -6 -12 -14 -16 -7 -5 -8 -9 -2 -9 6 0 11 -7
11 -15 0 -8 -5 -15 -11 -15 -6 0 -5 -4 2 -9 8 -4 14 -12 14 -16 0 -4 -6 -12
-14 -16 -7 -5 -8 -9 -2 -9 14 0 14 -30 0 -30 -6 0 -5 -4 2 -9 8 -4 14 -12 14
-16 0 -4 -6 -12 -14 -16 -7 -5 -8 -9 -2 -9 6 0 11 -7 11 -15 0 -8 -5 -15 -11
-15 -6 0 -5 -4 2 -9 8 -4 14 -12 14 -16 0 -4 -6 -12 -14 -16 -7 -5 -8 -9 -2
-9 6 0 9 -17 6 -42 -2 -24 -7 -89 -10 -145 -4 -56 -10 -105 -14 -109 -4 -3 -3
-15 2 -25 7 -12 6 -19 -3 -23 -9 -5 -9 -7 1 -12 6 -3 9 -11 5 -17 -10 -16 -12
-81 -3 -92 5 -5 8 -12 9 -15 0 -16 15 -40 23 -40 6 0 33 -12 62 -26 28 -14 51
-25 51 -24 0 6 76 -14 81 -21 3 -5 13 -5 23 0 9 5 22 6 29 2 14 -8 54 -7 70 3
7 4 12 3 12 -1 0 -5 12 -8 28 -7 15 1 27 2 27 3 0 2 11 4 25 7 14 2 36 7 50
11 14 3 28 6 33 5 4 -1 7 3 7 8 0 6 9 10 20 10 11 0 20 4 20 9 0 5 11 12 25
15 14 4 25 11 25 16 0 6 5 10 10 10 6 0 27 18 48 39 50 53 56 61 71 99 7 17
18 32 24 32 6 0 8 2 5 6 -3 3 3 28 14 56 13 36 16 54 8 63 -8 9 -7 14 3 18 10
4 13 20 11 54 -1 26 -3 48 -4 48 -1 0 -3 9 -5 20 -7 43 -16 79 -23 89 -4 6 -7
13 -7 16 -1 19 -83 123 -122 156 -25 21 -52 45 -59 52 -7 6 -17 12 -22 12 -5
0 -17 9 -27 20 -10 11 -24 20 -32 20 -7 0 -13 3 -13 8 0 6 -44 30 -70 38 -41
13 -50 17 -50 23 0 4 -12 8 -26 9 -14 1 -38 9 -52 17 -104 57 -184 74 -222 47z
m141 -236 c5 3 9 0 9 -6 0 -6 4 -9 9 -6 5 3 29 -5 55 -19 25 -13 46 -21 46
-17 0 4 4 3 8 -3 4 -5 27 -21 52 -34 57 -31 150 -108 150 -126 0 -7 6 -15 14
-18 7 -3 16 -17 20 -31 3 -14 11 -38 17 -53 16 -39 16 -115 2 -131 -7 -7 -13
-21 -13 -30 0 -35 -125 -144 -144 -125 -3 4 -6 1 -6 -5 0 -7 -10 -12 -22 -11
-13 0 -51 -2 -85 -4 -35 -2 -63 -1 -63 4 0 4 -10 6 -23 3 -13 -2 -32 2 -42 9
-18 14 -30 77 -13 77 5 0 6 5 2 11 -10 17 -12 109 -1 109 4 0 5 5 1 11 -12 19
-11 109 0 109 7 0 8 3 1 8 -13 9 -16 72 -3 72 5 0 6 5 2 11 -10 17 -12 109 -1
109 4 0 5 6 0 13 -11 17 -10 71 2 79 6 4 12 3 13 -2 2 -6 8 -8 13 -4z"/>
<path d="M5511 4623 c-1 -7 -14 -13 -30 -13 -42 0 -92 -52 -89 -93 2 -36 29
-72 70 -93 19 -10 29 -11 34 -3 4 7 10 7 16 1 13 -13 65 13 79 40 15 29 20 88
8 88 -6 0 -8 4 -4 9 6 11 -41 51 -61 51 -7 0 -15 6 -17 13 -4 10 -6 10 -6 0z"/>
<path d="M6591 4547 c-6 -6 -11 -7 -11 -3 0 5 -9 -3 -21 -18 -11 -14 -17 -30
-14 -36 3 -5 0 -10 -7 -10 -11 0 -11 -2 0 -8 9 -7 10 -15 3 -35 -6 -15 -7 -27
-3 -27 8 0 10 -50 2 -51 -3 0 -14 -2 -25 -4 -10 -2 -24 -1 -30 3 -21 15 -80 0
-106 -27 -21 -22 -31 -51 -17 -51 7 0 7 -4 0 -12 -17 -21 -17 -22 9 -49 26
-28 76 -59 65 -40 -9 14 0 14 25 1 10 -6 34 -11 53 -12 24 -1 36 -7 39 -19 3
-10 0 -20 -7 -23 -8 -3 -7 -7 2 -14 7 -4 12 -22 10 -38 -1 -16 1 -35 5 -41 4
-6 4 -14 -1 -17 -6 -4 -8 -60 -1 -92 1 -5 1 -11 0 -14 -1 -3 -3 -54 -3 -115
-1 -111 10 -155 39 -155 7 0 13 -5 13 -11 0 -5 4 -8 9 -4 5 3 12 1 15 -4 11
-18 73 11 92 43 16 27 18 56 19 246 1 118 -2 222 -7 231 -6 14 -2 17 22 15 17
-1 30 2 30 7 0 4 6 5 13 0 17 -11 30 -11 45 0 8 6 12 6 12 -2 0 -8 5 -8 19 1
11 7 19 14 18 17 -3 13 15 51 21 47 14 -8 4 65 -12 88 -22 35 -64 51 -123 50
-58 -1 -61 2 -58 64 2 23 -1 42 -6 42 -5 0 -9 12 -9 26 0 14 -4 23 -10 19 -5
-3 -10 1 -10 9 0 23 -80 42 -99 23z"/>
<path d="M5470 4320 c0 -4 -10 -12 -23 -19 -13 -7 -24 -18 -25 -24 -1 -7 -4
-41 -7 -77 -4 -36 -10 -69 -13 -75 -4 -5 -7 -40 -7 -77 0 -38 -4 -68 -9 -68
-6 0 -5 -5 1 -11 6 -6 8 -23 3 -44 -4 -19 -5 -36 -3 -39 7 -6 6 -152 0 -163
-9 -16 31 -69 63 -84 36 -18 52 -14 94 24 20 17 21 29 21 188 0 93 3 169 7
169 5 0 6 16 3 35 -2 19 0 37 4 40 5 2 7 23 6 45 -1 22 1 40 4 40 10 0 6 59
-4 85 -14 34 -46 58 -81 60 -19 1 -34 -2 -34 -5z"/>
<path d="M5944 4321 c-2 -3 -14 -6 -26 -8 -12 -2 -27 -8 -33 -13 -7 -5 -15 -7
-18 -4 -3 3 -32 -21 -64 -53 -72 -74 -85 -91 -79 -102 3 -5 -1 -14 -9 -21 -13
-11 -20 -34 -28 -95 -1 -11 -6 -26 -10 -32 -5 -7 -4 -13 0 -13 10 0 9 -83 -1
-99 -4 -6 -2 -11 3 -11 6 0 11 -7 11 -15 0 -43 87 -165 117 -165 7 0 13 -4 13
-9 0 -4 20 -14 45 -21 25 -7 45 -15 45 -19 0 -3 19 -7 43 -8 23 -1 54 -3 70
-6 15 -2 30 -1 32 3 3 5 13 7 23 5 59 -9 259 132 229 162 -4 3 -2 12 4 20 9
10 8 13 0 13 -7 0 -10 4 -6 9 7 13 -34 41 -60 41 -11 0 -52 -15 -90 -34 -87
-42 -174 -47 -242 -14 -38 18 -49 38 -22 38 5 0 44 17 85 37 42 20 83 36 90
36 8 0 14 4 14 9 0 4 7 8 15 8 8 0 15 5 15 11 0 5 5 7 10 4 6 -3 10 -1 10 4 0
6 4 10 10 9 14 -4 116 63 130 86 48 76 3 181 -95 222 -52 21 -216 39 -231 25z
m132 -191 c-11 -8 -32 -20 -46 -27 -42 -18 -85 -35 -87 -34 -2 0 -19 -8 -39
-20 -20 -11 -38 -18 -41 -15 -7 7 27 69 50 90 11 11 28 21 36 22 9 1 33 5 54
7 21 3 40 7 43 10 3 2 15 0 28 -6 l23 -11 -21 -16z"/>
</g>
</svg>
